# xmcd
# 
# Track frame offsets:
#     182
#     22767
#     41360
#     56910
#     70517
#     80530
#     93077
#     99275
#     116407
#     137130
#     151427
#     168192
#     179582
# 
# Disc length: 2659
# 
# Revision: 7
# Processed by: cddbd v1.5.2PL0 Copyright (c) Steve Scherf et al.
# Submitted via: fre:ac v1.0.31
# 
DISCID=980a610d
DTITLE=Tom Waits - The Early Years Vol. 2
DYEAR=1993
DGENRE=Rock/Pop
TTITLE0=Hope I Don't Fall In Love With You
TTITLE1=Ol' 55
TTITLE2=Mockin' Bird
TTITLE3=In Between Love
TTITLE4=Blue Skies
TTITLE5=Nobody
TTITLE6=I Want You
TTITLE7=Shiver Me Timbers
TTITLE8=Grapefruit Moon
TTITLE9=Diamonds On My Windshield
TTITLE10=Please Call Me, Baby
TTITLE11=So It Goes
TTITLE12=Old Shoes
EXTD=YEAR: 1993
EXTT0=
EXTT1=
EXTT2=
EXTT3=
EXTT4=
EXTT5=
EXTT6=
EXTT7=
EXTT8=
EXTT9=
EXTT10=
EXTT11=
EXTT12=
PLAYORDER=
